<?xml version="1.0" encoding="utf-8"?>
<!-- Svg Vector Icons : http://www.onlinewebfonts.com/icon -->
<!DOCTYPE svg PUBLIC "-//W3C//DTD SVG 1.1//EN" "http://www.w3.org/Graphics/SVG/1.1/DTD/svg11.dtd">
<svg version="1.1" xmlns="http://www.w3.org/2000/svg" xmlns:xlink="http://www.w3.org/1999/xlink" x="0px" y="0px" viewBox="0 0 1000 1000" enable-background="new 0 0 1000 1000" xml:space="preserve">
<metadata> Svg Vector Icons : http://www.onlinewebfonts.com/icon </metadata>
<g><path d="M500,10C229.4,10,10,229.4,10,500s219.4,490,490,490s490-219.4,490-490S770.6,10,500,10z M348.2,640.4c-6.2,6.2-14.9,9.8-23.6,9.8c-8.7,0-17.4-3.6-23.6-9.8s-9.8-14.9-9.8-23.6s3.6-17.4,9.8-23.6c6.2-6.2,14.9-9.8,23.6-9.8c8.7,0,17.4,3.6,23.6,9.8c6.2,6.2,9.8,14.9,9.8,23.6C358,625.6,354.4,634.3,348.2,640.4z M348.2,523.6c-6.2,6.2-14.9,9.8-23.6,9.8c-8.7,0-17.4-3.6-23.6-9.8s-9.8-14.9-9.8-23.6s3.6-17.4,9.8-23.6c6.2-6.2,14.9-9.8,23.6-9.8c8.7,0,17.4,3.6,23.6,9.8c6.2,6.2,9.8,14.9,9.8,23.6C358,508.7,354.4,517.4,348.2,523.6z M348.2,406.8c-6.2,6.2-14.9,9.8-23.6,9.8c-8.7,0-17.4-3.6-23.6-9.8s-9.8-14.9-9.8-23.6s3.6-17.4,9.8-23.6c6.2-6.2,14.9-9.8,23.6-9.8c8.7,0,17.4,3.6,23.6,9.8c6.2,6.2,9.8,14.9,9.8,23.6C358,391.9,354.4,400.6,348.2,406.8z M691.8,633.5H424.8c-9.2,0-16.7-7.5-16.7-16.7c0-9.2,7.5-16.7,16.7-16.7h267.1c9.2,0,16.7,7.5,16.7,16.7S701,633.5,691.8,633.5z M691.8,516.7H424.8c-9.2,0-16.7-7.5-16.7-16.7s7.5-16.7,16.7-16.7h267.1c9.2,0,16.7,7.5,16.7,16.7S701,516.7,691.8,516.7z M691.8,399.8H424.8c-9.2,0-16.7-7.5-16.7-16.7c0-9.2,7.5-16.7,16.7-16.7h267.1c9.2,0,16.7,7.5,16.7,16.7C708.5,392.4,701,399.8,691.8,399.8z"/></g>
</svg>